<mxfile host="app.diagrams.net" modified="2023-11-26T14:48:21.910Z" agent="Mozilla/5.0 (Windows NT 10.0; Win64; x64) AppleWebKit/537.36 (KHTML, like Gecko) Chrome/109.0.0.0 Safari/537.36" etag="xjFPTTrsEF87ueT4y6Y2" version="22.1.4" type="device">
  <diagram name="Page-1" id="ot3oJ0A_FJG3IO7jYxw4">
    <mxGraphModel dx="868" dy="432" grid="1" gridSize="10" guides="1" tooltips="1" connect="1" arrows="1" fold="1" page="1" pageScale="1" pageWidth="850" pageHeight="1100" math="0" shadow="0">
      <root>
        <mxCell id="0" />
        <mxCell id="1" parent="0" />
        <mxCell id="2TrJgn0k99Wz9AcOf1YM-95" value="" style="rounded=0;whiteSpace=wrap;html=1;" parent="1" vertex="1">
          <mxGeometry x="50" y="170" width="170" height="40" as="geometry" />
        </mxCell>
        <mxCell id="2TrJgn0k99Wz9AcOf1YM-96" value="opcode" style="text;html=1;strokeColor=none;fillColor=none;align=center;verticalAlign=middle;whiteSpace=wrap;rounded=0;" parent="1" vertex="1">
          <mxGeometry x="50" y="175" width="60" height="30" as="geometry" />
        </mxCell>
        <mxCell id="2TrJgn0k99Wz9AcOf1YM-97" value="" style="endArrow=none;html=1;rounded=0;entryX=0.325;entryY=0.018;entryDx=0;entryDy=0;entryPerimeter=0;" parent="1" edge="1">
          <mxGeometry width="50" height="50" relative="1" as="geometry">
            <mxPoint x="110" y="210" as="sourcePoint" />
            <mxPoint x="110" y="170" as="targetPoint" />
          </mxGeometry>
        </mxCell>
        <mxCell id="2TrJgn0k99Wz9AcOf1YM-99" value="Relative" style="text;html=1;strokeColor=none;fillColor=none;align=center;verticalAlign=middle;whiteSpace=wrap;rounded=0;fontStyle=2" parent="1" vertex="1">
          <mxGeometry x="60" y="130" width="150" height="30" as="geometry" />
        </mxCell>
        <mxCell id="2TrJgn0k99Wz9AcOf1YM-109" value="" style="rounded=0;whiteSpace=wrap;html=1;" parent="1" vertex="1">
          <mxGeometry x="260" y="260" width="80" height="120" as="geometry" />
        </mxCell>
        <mxCell id="2TrJgn0k99Wz9AcOf1YM-110" value="" style="endArrow=none;html=1;rounded=0;" parent="1" edge="1">
          <mxGeometry width="50" height="50" relative="1" as="geometry">
            <mxPoint x="260" y="280" as="sourcePoint" />
            <mxPoint x="340" y="280" as="targetPoint" />
          </mxGeometry>
        </mxCell>
        <mxCell id="2TrJgn0k99Wz9AcOf1YM-111" value="" style="endArrow=none;html=1;rounded=0;" parent="1" edge="1">
          <mxGeometry width="50" height="50" relative="1" as="geometry">
            <mxPoint x="260" y="300" as="sourcePoint" />
            <mxPoint x="340" y="300" as="targetPoint" />
          </mxGeometry>
        </mxCell>
        <mxCell id="2TrJgn0k99Wz9AcOf1YM-112" value="" style="endArrow=none;html=1;rounded=0;" parent="1" edge="1">
          <mxGeometry width="50" height="50" relative="1" as="geometry">
            <mxPoint x="260" y="319.79999999999995" as="sourcePoint" />
            <mxPoint x="340" y="319.79999999999995" as="targetPoint" />
          </mxGeometry>
        </mxCell>
        <mxCell id="2TrJgn0k99Wz9AcOf1YM-113" value="" style="endArrow=none;html=1;rounded=0;" parent="1" edge="1">
          <mxGeometry width="50" height="50" relative="1" as="geometry">
            <mxPoint x="260" y="340" as="sourcePoint" />
            <mxPoint x="340" y="340" as="targetPoint" />
          </mxGeometry>
        </mxCell>
        <mxCell id="2TrJgn0k99Wz9AcOf1YM-114" value="" style="endArrow=none;html=1;rounded=0;" parent="1" edge="1">
          <mxGeometry width="50" height="50" relative="1" as="geometry">
            <mxPoint x="260" y="360" as="sourcePoint" />
            <mxPoint x="340" y="360" as="targetPoint" />
          </mxGeometry>
        </mxCell>
        <mxCell id="2TrJgn0k99Wz9AcOf1YM-115" value="memory" style="text;html=1;strokeColor=none;fillColor=none;align=center;verticalAlign=middle;whiteSpace=wrap;rounded=0;" parent="1" vertex="1">
          <mxGeometry x="260" y="230" width="80" height="30" as="geometry" />
        </mxCell>
        <mxCell id="2TrJgn0k99Wz9AcOf1YM-116" value="instruction" style="text;html=1;strokeColor=none;fillColor=none;align=center;verticalAlign=middle;whiteSpace=wrap;rounded=0;" parent="1" vertex="1">
          <mxGeometry x="260" y="300" width="80" height="20" as="geometry" />
        </mxCell>
        <mxCell id="2TrJgn0k99Wz9AcOf1YM-118" value="effective address" style="text;html=1;strokeColor=none;fillColor=none;align=center;verticalAlign=middle;whiteSpace=wrap;rounded=0;" parent="1" vertex="1">
          <mxGeometry x="170" y="275" width="80" height="30" as="geometry" />
        </mxCell>
        <mxCell id="kAW9tDxv86w-MjhRQov_-2" value="displacement" style="text;html=1;strokeColor=none;fillColor=none;align=center;verticalAlign=middle;whiteSpace=wrap;rounded=0;" parent="1" vertex="1">
          <mxGeometry x="110" y="175" width="110" height="30" as="geometry" />
        </mxCell>
        <mxCell id="kAW9tDxv86w-MjhRQov_-5" value="+" style="ellipse;whiteSpace=wrap;html=1;aspect=fixed;" parent="1" vertex="1">
          <mxGeometry x="150" y="300" width="20" height="20" as="geometry" />
        </mxCell>
        <mxCell id="kAW9tDxv86w-MjhRQov_-6" value="" style="endArrow=classic;html=1;rounded=0;entryX=0;entryY=0.5;entryDx=0;entryDy=0;exitX=1;exitY=0.5;exitDx=0;exitDy=0;" parent="1" target="kAW9tDxv86w-MjhRQov_-5" edge="1">
          <mxGeometry width="50" height="50" relative="1" as="geometry">
            <mxPoint x="100" y="310" as="sourcePoint" />
            <mxPoint x="90" y="205" as="targetPoint" />
          </mxGeometry>
        </mxCell>
        <mxCell id="kAW9tDxv86w-MjhRQov_-8" value="" style="endArrow=classic;html=1;rounded=0;entryX=0;entryY=0.5;entryDx=0;entryDy=0;exitX=1;exitY=0.5;exitDx=0;exitDy=0;" parent="1" source="kAW9tDxv86w-MjhRQov_-5" target="2TrJgn0k99Wz9AcOf1YM-116" edge="1">
          <mxGeometry width="50" height="50" relative="1" as="geometry">
            <mxPoint x="150" y="305" as="sourcePoint" />
            <mxPoint x="200" y="255" as="targetPoint" />
          </mxGeometry>
        </mxCell>
        <mxCell id="WR90RiqcOPE-TO8AId8w-1" value="PC" style="rounded=0;whiteSpace=wrap;html=1;" vertex="1" parent="1">
          <mxGeometry x="20" y="295" width="80" height="30" as="geometry" />
        </mxCell>
        <mxCell id="WR90RiqcOPE-TO8AId8w-2" value="" style="endArrow=classic;html=1;rounded=0;exitX=0.647;exitY=1;exitDx=0;exitDy=0;exitPerimeter=0;entryX=0.5;entryY=0;entryDx=0;entryDy=0;" edge="1" parent="1" source="2TrJgn0k99Wz9AcOf1YM-95" target="kAW9tDxv86w-MjhRQov_-5">
          <mxGeometry width="50" height="50" relative="1" as="geometry">
            <mxPoint x="400" y="440" as="sourcePoint" />
            <mxPoint x="450" y="390" as="targetPoint" />
          </mxGeometry>
        </mxCell>
      </root>
    </mxGraphModel>
  </diagram>
</mxfile>
